<?xml version="1.0" standalone="no"?>
<!DOCTYPE svg PUBLIC "-//W3C//DTD SVG 20010904//EN"
 "http://www.w3.org/TR/2001/REC-SVG-20010904/DTD/svg10.dtd">
<svg version="1.0" xmlns="http://www.w3.org/2000/svg"
 width="512.000000pt" height="512.000000pt" viewBox="0 0 512.000000 512.000000"
 preserveAspectRatio="xMidYMid meet">

<g transform="translate(0.000000,512.000000) scale(0.100000,-0.100000)"
fill="#000000" stroke="none">
<path d="M2595 4005 c-841 -205 -1542 -376 -1557 -380 -44 -11 -115 -80 -134
-130 -13 -34 -15 -61 -11 -110 l6 -64 -262 -3 -262 -3 -48 -28 c-33 -19 -56
-44 -77 -80 -30 -52 -30 -52 -30 -214 l0 -163 1800 0 1800 0 0 -255 0 -255
-1800 0 -1800 0 2 -718 3 -718 28 -42 c15 -23 46 -54 69 -69 l42 -28 1630 -3
c1157 -2 1642 0 1669 8 48 14 102 61 130 114 21 40 22 52 25 412 l3 370 467
113 c317 77 481 121 510 137 59 34 102 111 102 181 0 34 -56 285 -159 709 -88
361 -162 658 -165 661 -3 3 -189 -39 -413 -94 l-408 -99 -34 23 c-18 12 -50
27 -70 33 -23 6 -353 10 -910 10 -481 0 -872 2 -870 4 2 2 582 144 1289 316
707 172 1287 314 1290 316 11 11 -62 282 -88 324 -37 59 -113 100 -186 99 -30
-1 -672 -152 -1581 -374z m-1827 -2703 l3 -122 24 0 c20 0 25 -5 25 -25 0 -20
-5 -25 -25 -25 -23 0 -25 -4 -25 -45 0 -41 -2 -45 -25 -45 -23 0 -25 4 -25 45
l0 45 -85 0 c-82 0 -85 1 -85 23 0 13 30 66 66 118 104 147 115 160 132 157
15 -3 17 -21 20 -126z m266 114 c64 -27 85 -90 46 -139 l-20 -25 30 -30 c94
-95 -51 -243 -168 -172 -31 19 -66 76 -56 92 13 21 50 6 64 -25 13 -28 21 -32
57 -35 33 -2 44 1 57 20 37 53 9 118 -51 118 -30 0 -34 3 -31 22 2 15 13 24
36 30 72 19 61 108 -14 108 -28 0 -38 -6 -52 -30 -17 -29 -62 -43 -62 -20 0
27 34 73 63 85 41 18 60 18 101 1z m310 0 c42 -18 66 -51 66 -94 0 -50 -13
-69 -103 -154 l-82 -78 93 0 c91 0 92 0 92 -25 l0 -25 -131 0 c-115 0 -130 2
-125 16 3 9 6 20 6 26 0 6 42 51 94 102 102 98 119 130 92 171 -30 46 -126 25
-126 -27 0 -12 -7 -18 -24 -18 -14 0 -27 4 -30 8 -11 18 30 78 64 94 42 22 70
22 114 4z m296 -181 l0 -195 -25 0 -25 0 0 145 0 146 -43 -26 c-24 -14 -47
-22 -50 -18 -16 15 -5 43 21 57 15 8 43 30 61 50 60 62 61 58 61 -159z"/>
<path d="M674 1282 c-17 -26 -39 -59 -48 -74 l-18 -28 56 0 56 0 0 75 c0 41
-3 75 -7 75 -5 0 -22 -22 -39 -48z"/>
</g>
</svg>
